<?xml version="1.0" standalone="no"?>
<!DOCTYPE svg PUBLIC "-//W3C//DTD SVG 20010904//EN"
 "http://www.w3.org/TR/2001/REC-SVG-20010904/DTD/svg10.dtd">
<svg version="1.0" xmlns="http://www.w3.org/2000/svg"
 width="472.000000pt" height="472.000000pt" viewBox="0 0 472.000000 472.000000"
 preserveAspectRatio="xMidYMid meet">
<metadata>
Created by potrace 1.14, written by Peter Selinger 2001-2017
</metadata>
<g transform="translate(0.000000,472.000000) scale(0.100000,-0.100000)"
fill="#000000" stroke="none">
<path d="M1106 4633 c-1 -1 -39 -3 -86 -4 -256 -6 -414 -124 -474 -353 -13
-52 -15 -195 -16 -1105 0 -576 -1 -1401 -2 -1836 0 -434 2 -806 5 -825 31
-214 170 -365 377 -409 71 -15 3165 -17 3201 -2 40 17 60 38 73 75 9 26 12
536 11 2199 l0 2163 -25 37 c-14 21 -39 42 -57 48 -22 7 -501 11 -1518 12
-818 1 -1488 1 -1489 0z"/>
</g>
</svg>
